<?xml version="1.0" encoding="UTF-8"?><svg id="Layer_1" xmlns="http://www.w3.org/2000/svg" xmlns:xlink="http://www.w3.org/1999/xlink" viewBox="0 0 200 200"><defs><style>.cls-1{fill:none;}.cls-2{fill:url(#linear-gradient);opacity:.5;}.cls-3{clip-path:url(#clippath);}.cls-4{fill:#f4a618;}.cls-5{clip-path:url(#clippath-1);}.cls-6{clip-path:url(#clippath-2);}</style><clipPath id="clippath"><rect class="cls-1" x="-15.98" y="-1037.39" width="727.3" height="708.34"/></clipPath><clipPath id="clippath-1"><path class="cls-1" d="M534.61-1016.97h-83.19c-5.17,0-9.36,4.19-9.36,9.36v13.8c0,9.9-8.03,17.92-17.92,17.92h-150.91c-9.9,0-17.92-8.03-17.92-17.92v-13.8c0-5.17-4.19-9.36-9.36-9.36h-83.19c-33.89,0-61.36,27.47-61.36,61.36V-119.43c0,33.89,27.47,61.36,61.36,61.36h371.85c33.89,0,61.36-27.47,61.36-61.36V-955.61c0-33.89-27.47-61.36-61.36-61.36Z"/></clipPath><clipPath id="clippath-2"><path class="cls-1" d="M534.61-1016.97h-83.19c-5.17,0-9.36,4.19-9.36,9.36v13.8c0,9.9-8.03,17.92-17.92,17.92h-150.91c-9.9,0-17.92-8.03-17.92-17.92v-13.8c0-5.17-4.19-9.36-9.36-9.36h-83.19c-33.89,0-61.36,27.47-61.36,61.36V-119.43c0,33.89,27.47,61.36,61.36,61.36h371.85c33.89,0,61.36-27.47,61.36-61.36V-955.61c0-33.89-27.47-61.36-61.36-61.36Z"/></clipPath><linearGradient id="linear-gradient" x1="380.53" y1="-161.89" x2="455.12" y2="15.26" gradientTransform="translate(20.7 -149.03) rotate(19.56)" gradientUnits="userSpaceOnUse"><stop offset="0" stop-color="#fff"/><stop offset="1" stop-color="#fff" stop-opacity=".2"/></linearGradient></defs><g class="cls-3"><g class="cls-5"><g class="cls-6"><image width="8256" height="5504" transform="translate(-453.03 -1164.46) scale(.22)" xlink:href="../../../../Supplied/RSL Mobile App_Folder/Links/DSC_8165.JPG"/></g><rect class="cls-2" x="78.23" y="-118.9" width="728.75" height="208.87" transform="translate(30.39 147.36) rotate(-19.56)"/></g></g><path class="cls-4" d="M136.04,27.92H63.96c-14.93,0-27.03,12.1-27.03,27.03v99.11c0,9.95,8.07,18.02,18.02,18.02h90.1c9.95,0,18.02-8.07,18.02-18.02V54.95c0-14.93-12.11-27.03-27.03-27.03Zm18.02,126.14c0,4.97-4.04,9.01-9.01,9.01H54.95c-4.97,0-9.01-4.04-9.01-9.01V54.95c0-9.94,8.08-18.02,18.02-18.02h72.08c9.94,0,18.02,8.08,18.02,18.02v99.11ZM91.02,61.71c3.72,0,6.73-3.01,6.73-6.76s-3.01-6.76-6.73-6.76-6.79,3.03-6.79,6.76,3.01,6.76,6.79,6.76Zm-20.3-6.76c0-3.73-3.01-6.76-6.76-6.76s-6.76,3.03-6.76,6.76,3.05,6.76,6.76,6.76,6.76-3.01,6.76-6.76Zm29.28,18.02c-22.39,0-40.29,18.16-40.29,40.55s18.15,40.55,40.29,40.55,40.29-18.16,40.29-40.55-17.91-40.55-40.29-40.55Zm0,72.08c-16.04,0-29.17-12.09-31.14-27.61,6.32,2.14,13.43,1.34,19.07-2.52,3.52,2.42,7.74,3.74,12.08,3.74s8.57-1.34,12.09-3.77c3.46,2.38,7.54,3.69,11.83,3.76,2.5-.05,4.92-.52,7.23-1.3-1.91,15.56-15.06,27.69-31.14,27.69Zm24.05-35.39c-3.32-.04-6.42-1.39-8.75-3.78-1.28-1.3-3.22-1.72-4.93-1.01-.68,.28-1.27,.71-1.73,1.26-4.58,4.56-12.96,4.5-17.44-.18-.84-.88-2.01-1.38-3.23-1.39-1.25,.18-2.39,.48-3.24,1.35-4.22,4.33-10.75,4.69-15.64,1.52,2.83-14.49,15.61-25.44,30.9-25.44s28.16,11.07,30.94,25.64c-2.06,1.25-4.45,1.84-6.9,2.04Z"/></svg>