<?xml version="1.0" encoding="UTF-8"?><svg id="Layer_1" xmlns="http://www.w3.org/2000/svg" viewBox="0 0 200 200"><defs><style>.cls-1{fill:#f4a618;}</style></defs><path class="cls-1" d="M99.78,128.55c-7.71,0-14.16,6.68-14.16,14.62s6.44,14.39,14.16,14.39,14.62-6.45,14.62-14.39-6.45-14.62-14.62-14.62Zm80.54-55.64c-20.35-19.37-49.63-30.48-80.31-30.48s-59.95,11.11-80.32,30.48c-2.47,2.35-2.57,6.25-.22,8.71,2.33,2.47,6.25,2.57,8.71,.22,17.88-17.21,44.27-27.08,71.82-27.08s53.71,9.87,71.83,27.09c1.18,1.13,2.72,1.7,4.01,1.7,1.63,0,3.26-.64,4.47-1.92,2.58-2.48,2.5-6.36,0-8.72Zm-80.31,14.73c-19.69,0-38.01,7.2-51.55,20.24-2.47,2.38-2.54,6.28-.18,8.73,2.37,2.47,6.27,2.53,8.72,.18,11.25-10.82,26.51-16.78,43.01-16.78s31.77,5.96,43.02,16.78c1.18,1.15,2.49,1.72,4.03,1.72s3.24-.63,4.45-1.9c2.36-2.45,2.28-6.35-.18-8.72-13.32-13.05-31.64-20.25-51.33-20.25Z"/></svg>