<?xml version="1.0" encoding="UTF-8"?><svg id="Layer_1" xmlns="http://www.w3.org/2000/svg" xmlns:xlink="http://www.w3.org/1999/xlink" viewBox="0 0 200 200"><defs><style>.cls-1{fill:none;}.cls-2{clip-path:url(#clippath);}.cls-3{fill:#f4a618;}.cls-4{clip-path:url(#clippath-1);}.cls-5{clip-path:url(#clippath-2);}</style><clipPath id="clippath"><rect class="cls-1" x="475.45" y="-1037.39" width="727.3" height="708.34"/></clipPath><clipPath id="clippath-1"><path class="cls-1" d="M1026.05-1016.97h-83.19c-5.17,0-9.36,4.19-9.36,9.36v13.8c0,9.9-8.03,17.92-17.92,17.92h-150.91c-9.9,0-17.92-8.03-17.92-17.92v-13.8c0-5.17-4.19-9.36-9.36-9.36h-83.19c-33.89,0-61.36,27.47-61.36,61.36V-119.43c0,33.89,27.47,61.36,61.36,61.36h371.85c33.89,0,61.36-27.47,61.36-61.36V-955.61c0-33.89-27.47-61.36-61.36-61.36Z"/></clipPath><clipPath id="clippath-2"><path class="cls-1" d="M1026.05-1016.97h-83.19c-5.17,0-9.36,4.19-9.36,9.36v13.8c0,9.9-8.03,17.92-17.92,17.92h-150.91c-9.9,0-17.92-8.03-17.92-17.92v-13.8c0-5.17-4.19-9.36-9.36-9.36h-83.19c-33.89,0-61.36,27.47-61.36,61.36V-119.43c0,33.89,27.47,61.36,61.36,61.36h371.85c33.89,0,61.36-27.47,61.36-61.36V-955.61c0-33.89-27.47-61.36-61.36-61.36Z"/></clipPath></defs><g class="cls-2"><g class="cls-4"><g class="cls-5"><image width="8256" height="5504" transform="translate(38.41 -1164.46) scale(.22)" xlink:href="../../../../Supplied/RSL Mobile App_Folder/Links/DSC_8165.JPG"/></g></g></g><path class="cls-3" d="M178.3,95.88h-4.12v-20.6c0-6.83-5.53-12.36-12.36-12.36h-8.24c-1.45,0-2.83,.32-4.12,.74v-4.86c0-6.83-5.53-12.36-12.36-12.36h-8.24c-6.83,0-12.36,5.53-12.36,12.36v37.09h-32.97V58.79c0-6.83-5.53-12.36-12.36-12.36h-8.24c-6.83,0-12.36,5.53-12.36,12.36v4.86c-1.29-.46-2.68-.74-4.12-.74h-8.24c-6.83,0-12.36,5.54-12.36,12.36v20.6h-4.12c-2.27,0-4.12,1.85-4.12,4.12s1.85,4.12,4.12,4.12h4.12v20.6c0,6.83,5.53,12.36,12.36,12.36h8.24c1.45,0,2.83-.32,4.12-.74v4.86c0,6.83,5.53,12.36,12.36,12.36h8.24c6.83,0,12.36-5.54,12.36-12.36v-37.09h32.97v37.09c0,6.83,5.53,12.36,12.36,12.36h8.24c6.83,0,12.36-5.53,12.36-12.36v-4.86c1.29,.46,2.68,.74,4.12,.74h8.24c6.83,0,12.36-5.53,12.36-12.36v-20.6h4.12c2.27,0,4.12-1.85,4.12-4.12s-1.85-4.12-4.12-4.12Zm-127.74,28.85c0,2.25-1.87,4.12-4.12,4.12h-8.24c-2.25,0-4.12-1.85-4.12-4.12v-49.45c0-2.25,1.87-4.12,4.12-4.12h8.24c2.27,0,4.12,1.88,4.12,4.12v49.45Zm24.72,16.48c0,2.25-1.87,4.12-4.12,4.12h-8.24c-2.24,0-4.12-1.85-4.12-4.12V58.79c0-2.25,1.87-4.12,4.12-4.12h8.24c2.27,0,4.12,1.87,4.12,4.12v82.42Zm65.93,0c0,2.25-1.87,4.12-4.12,4.12h-8.24c-2.25,0-4.12-1.87-4.12-4.12V58.79c0-2.25,1.87-4.12,4.12-4.12h8.24c2.27,0,4.12,1.87,4.12,4.12v82.42Zm24.72-16.48c0,2.25-1.87,4.12-4.12,4.12h-8.24c-2.25,0-4.12-1.87-4.12-4.12v-49.45c0-2.25,1.87-4.12,4.12-4.12h8.24c2.27,0,4.12,1.88,4.12,4.12v49.45Z"/></svg>